<?xml version="1.0" ?><svg height="36px" version="1.1" viewBox="0 0 60 60" width="36px" xmlns="http://www.w3.org/2000/svg" xmlns:xlink="http://www.w3.org/1999/xlink"><title/><desc/><defs/><g fill="none" fill-rule="evenodd" id="Page-1" stroke="none" stroke-width="1"><g id="Social_icons" transform="translate(-322.000000, -1755.000000)"><g id="Mail.ru" transform="translate(322.000000, 1755.000000)"><path d="M0,30 C0,13.4314567 13.4314567,0 30,0 C46.5685433,0 60,13.4314567 60,30 C60,46.5685433 46.5685433,60 30,60 C13.4314567,60 0,46.5685433 0,30 Z" fill="#168DE2" id="back"/><path d="M36.2168566,29.8356435 C36.0120063,25.8550196 33.0579992,23.4616304 29.4899144,23.4616304 L29.3555553,23.4616304 C25.2382069,23.4616304 22.9545758,26.6994947 22.9545758,30.3773376 C22.9545758,34.4961054 25.7174524,37.0971834 29.3394701,37.0971834 C33.3782847,37.0971834 36.0342418,34.1389184 36.2263185,30.6399055 L36.2168566,29.8356435 Z M29.3758984,19.9006421 C32.1269476,19.9006421 34.7133597,21.116497 36.6128373,23.0202325 L36.6128373,23.027802 C36.6128373,22.1133088 37.2278612,21.424482 38.0822714,21.424482 L38.2980028,21.4230628 C39.6344971,21.4230628 39.9084192,22.6876465 39.9084192,23.0878851 L39.9150426,37.3015605 C39.8208966,38.2311928 40.875426,38.7113846 41.4601718,38.1152845 C43.7423836,35.7696779 46.4726166,26.0579775 40.041359,20.4305088 C34.0472415,15.184355 26.0050944,16.0491732 21.7278397,18.99703 C17.1809207,22.1331788 14.2713846,29.0730139 17.0976559,35.591321 C20.1784526,42.7028897 28.9945836,44.8223566 34.2341141,42.7080937 C36.8872326,41.6370059 38.1130226,45.2240145 35.3572424,46.3953985 C31.1935306,48.169979 19.6050611,47.991149 14.1914315,38.6134538 C10.5339316,32.2810731 10.7288469,21.1392056 20.4291931,15.3669697 C27.8501661,10.9515712 37.633777,12.1745226 43.5332755,18.3361159 C49.7000728,24.7768354 49.3405204,36.837454 43.3251135,41.5291402 C40.6000846,43.6585422 36.5522811,41.5849654 36.5783014,38.480514 L36.5499157,37.4652515 C34.6523304,39.3486439 32.1269476,40.4471712 29.3758984,40.4471712 C23.9395603,40.4471712 19.1565667,35.6637046 19.1565667,30.2292588 C19.1565667,24.7389878 23.9395603,19.9006421 29.3758984,19.9006421 L29.3758984,19.9006421 Z" fill="#FFFFFF" id="Fill-4"/></g></g></g></svg>
