<?xml version="1.0" ?><svg height="36px" version="1.1" viewBox="0 0 60 60" width="36px" xmlns="http://www.w3.org/2000/svg" xmlns:xlink="http://www.w3.org/1999/xlink"><title/><desc/><defs/><g fill="none" fill-rule="evenodd" id="Page-1" stroke="none" stroke-width="1"><g id="Social_icons" transform="translate(-422.000000, -1555.000000)"><g id="Creativemarket" transform="translate(422.000000, 1555.000000)"><circle cx="30" cy="30" fill="#29a3a3" id="Oval" r="30"/><path d="M46.9998767,28.0103664 C46.9998767,26.6323999 46.4066771,18.4408732 46.4066771,18.4408732 C46.4066771,17.1422196 45.9254784,16.2720583 45.3211294,15.6788587 C44.7302103,15.0767902 43.8597957,14.593311 42.5613955,14.593311 C42.5613955,14.593311 34.3696153,14.0001113 32.9896216,14.0001113 C31.0100935,14.0001113 29.6893944,13.9428439 27.2086493,16.4258696 C26.0022318,17.6300065 12.6312944,31.0029711 12.0667285,31.5655098 C11.5041897,32.1280486 9.60144049,34.3475426 12.8469342,37.5927829 L17.982254,42.7281027 L18.2723922,43.0182409 L23.4077119,48.1555878 C26.6552328,51.4031087 28.8747268,49.4960517 29.4372656,48.933513 C29.9998043,48.3707209 43.3727689,34.9977563 44.5769059,33.7936193 C47.0591713,31.3105936 46.9998767,29.9921752 46.9998767,28.0103664 L46.9998767,28.0103664 Z M32.7091125,32.4280692 L37.2907623,34.6039792 L35.6056801,37.6191361 L31.3678884,34.8518003 C31.2695708,34.786931 31.1580766,34.7534827 31.0463291,34.7534827 C30.9480115,34.7534827 30.8502007,34.7780621 30.760752,34.8292481 C30.5709585,34.9387151 30.4614915,35.1462462 30.477202,35.3646734 L30.8276485,40.3770962 L27.435692,40.3770962 L27.4199814,40.3770962 C27.433158,40.3345257 27.6989702,35.3623929 27.6989702,35.3623929 C27.7146808,35.1439657 27.6052138,34.9361811 27.4154203,34.8269675 C27.2233463,34.7175005 26.9892085,34.7266227 26.8085373,34.8492663 L22.688828,37.6477698 L20.8499345,34.722315 L25.4716209,32.4278158 C25.6702833,32.3343128 25.797488,32.1331165 25.797488,31.9124087 C25.797488,31.6914476 25.6702833,31.4905047 25.4716209,31.3970016 L20.8879439,29.2210917 L22.5727727,26.2064416 L26.8085373,28.9758045 C26.9892085,29.0964209 27.2233463,29.1095975 27.4154203,28.9981034 C27.6052138,28.8886364 27.7144274,28.6813586 27.6989702,28.4624246 L27.3508044,23.4500018 L30.7450414,23.4500018 L30.477202,28.4624246 C30.4614915,28.6811052 30.5709585,28.8886364 30.760752,28.9981034 C30.9525726,29.1095975 31.1892443,29.0964209 31.3678884,28.9758045 L35.4875977,26.177301 L37.3264912,29.1032626 L32.7091125,31.397255 C32.5104501,31.4910115 32.3832454,31.691701 32.3832454,31.9126621 C32.3832454,32.1336233 32.5104501,32.3345662 32.7091125,32.4280692 L32.7091125,32.4280692 Z M40.5463919,22.815752 C39.3465627,22.815752 38.3773236,21.8444859 38.3773236,20.6469372 C38.3773236,19.4493885 39.3463093,18.4804029 40.5463919,18.4804029 C41.7393794,18.4804029 42.7083651,19.4493885 42.7083651,20.6469372 C42.7083651,21.8444859 41.7393794,22.815752 40.5463919,22.815752 L40.5463919,22.815752 Z" fill="#FFFFFF" id="Shape"/></g></g></g></svg>
